ffmpeg version 4.1.1 Copyright (c) 2000-2019 the FFmpeg developers
  built with clang version 4.0.1 (tags/RELEASE_401/final)
  configuration: --prefix=/Users/Raymond/anaconda/envs/malmo --cc=x86_64-apple-darwin13.4.0-clang --disable-doc --disable-openssl --enable-avresample --enable-gnutls --enable-gpl --enable-hardcoded-tables --enable-libfreetype --enable-libopenh264 --enable-libx264 --enable-pic --enable-pthreads --enable-shared --enable-static --enable-version3 --enable-zlib --enable-libmp3lame
  libavutil      56. 22.100 / 56. 22.100
  libavcodec     58. 35.100 / 58. 35.100
  libavformat    58. 20.100 / 58. 20.100
  libavdevice    58.  5.100 / 58.  5.100
  libavfilter     7. 40.101 /  7. 40.101
  libavresample   4.  0.  0 /  4.  0.  0
  libswscale      5.  3.100 /  5.  3.100
  libswresample   3.  3.100 /  3.  3.100
  libpostproc    55.  3.100 / 55.  3.100
[image2pipe @ 0x7f8cb2000000] Stream #0: not enough frames to estimate rate; consider increasing probesize
Input #0, image2pipe, from 'pipe:':
  Duration: N/A, bitrate: N/A
    Stream #0:0: Video: ppm, rgb24, 1200x720, 30 tbr, 30 tbn, 30 tbc
Stream mapping:
  Stream #0:0 -> #0:0 (ppm (native) -> h264 (libx264))
[libx264 @ 0x7f8cb2804200] using cpu capabilities: MMX2 SSE2Fast SSSE3 SSE4.2 AVX FMA3 BMI2 AVX2
[libx264 @ 0x7f8cb2804200] profile High, level 3.1
[libx264 @ 0x7f8cb2804200] 264 - core 152 - H.264/MPEG-4 AVC codec - Copyleft 2003-2017 - http://www.videolan.org/x264.html - options: cabac=1 ref=3 deblock=1:0:0 analyse=0x3:0x113 me=hex subme=7 psy=1 psy_rd=1.00:0.00 mixed_ref=1 me_range=16 chroma_me=1 trellis=1 8x8dct=1 cqm=0 deadzone=21,11 fast_pskip=1 chroma_qp_offset=-2 threads=6 lookahead_threads=1 sliced_threads=0 nr=0 decimate=1 interlaced=0 bluray_compat=0 constrained_intra=0 bframes=3 b_pyramid=2 b_adapt=1 b_bias=0 direct=1 weightb=1 open_gop=0 weightp=2 keyint=250 keyint_min=25 scenecut=40 intra_refresh=0 rc_lookahead=40 rc=abr mbtree=1 bitrate=2000 ratetol=1.0 qcomp=0.60 qpmin=0 qpmax=69 qpstep=4 ip_ratio=1.40 aq=1:1.00
Output #0, mp4, to './mission_records/5c4334b7-cc5f-4e22-a0a8-f4eb74ad9a14/video.mp4':
  Metadata:
    encoder         : Lavf58.20.100
    Stream #0:0: Video: h264 (libx264) (avc1 / 0x31637661), yuv420p, 1200x720, q=-1--1, 2000 kb/s, 30 fps, 15360 tbn, 30 tbc
    Metadata:
      encoder         : Lavc58.35.100 libx264
    Side data:
      cpb: bitrate max/min/avg: 0/0/2000000 buffer size: 0 vbv_delay: -1
frame=    5 fps=0.0 q=0.0 size=       0kB time=00:00:00.00 bitrate=N/A speed=   0x    frame=    7 fps=6.3 q=0.0 size=       0kB time=00:00:00.00 bitrate=N/A speed=   0x    frame=    9 fps=5.2 q=0.0 size=       0kB time=00:00:00.00 bitrate=N/A speed=   0x    frame=   11 fps=4.8 q=0.0 size=       0kB time=00:00:00.00 bitrate=N/A speed=   0x    frame=   13 fps=4.7 q=0.0 size=       0kB time=00:00:00.00 bitrate=N/A speed=   0x    frame=   15 fps=4.4 q=0.0 size=       0kB time=00:00:00.00 bitrate=N/A speed=   0x    frame=   17 fps=4.4 q=0.0 size=       0kB time=00:00:00.00 bitrate=N/A speed=   0x    frame=   20 fps=4.3 q=0.0 size=       0kB time=00:00:00.00 bitrate=N/A speed=   0x    frame=   22 fps=4.2 q=0.0 size=       0kB time=00:00:00.00 bitrate=N/A speed=   0x    frame=   24 fps=4.2 q=0.0 size=       0kB time=00:00:00.00 bitrate=N/A speed=   0x    frame=   26 fps=4.1 q=0.0 size=       0kB time=00:00:00.00 bitrate=N/A speed=   0x    frame=   28 fps=4.1 q=0.0 size=       0kB time=00:00:00.00 bitrate=N/A speed=   0x    frame=   30 fps=4.0 q=0.0 size=       0kB time=00:00:00.00 bitrate=N/A speed=   0x    frame=   32 fps=3.9 q=0.0 size=       0kB time=00:00:00.00 bitrate=N/A speed=   0x    frame=   34 fps=3.9 q=0.0 size=       0kB time=00:00:00.00 bitrate=N/A speed=   0x    frame=   36 fps=3.8 q=0.0 size=       0kB time=00:00:00.00 bitrate=N/A speed=   0x    frame=   38 fps=3.8 q=0.0 size=       0kB time=00:00:00.00 bitrate=N/A speed=   0x    frame=   40 fps=3.8 q=0.0 size=       0kB time=00:00:00.00 bitrate=N/A speed=   0x    frame=   42 fps=3.8 q=0.0 size=       0kB time=00:00:00.00 bitrate=N/A speed=   0x    frame=   44 fps=3.7 q=0.0 size=       0kB time=00:00:00.00 bitrate=N/A speed=   0x    frame=   46 fps=3.6 q=0.0 size=       0kB time=00:00:00.00 bitrate=N/A speed=   0x    frame=   48 fps=3.6 q=0.0 size=       0kB time=00:00:00.00 bitrate=N/A speed=   0x    frame=   50 fps=3.6 q=0.0 size=       0kB time=00:00:00.00 bitrate=N/A speed=   0x    frame=   52 fps=3.6 q=31.0 size=       0kB time=-00:00:00.03 bitrate=N/A speed=N/A    frame=   54 fps=3.5 q=35.0 size=       0kB time=00:00:00.03 bitrate=  11.5kbits/s speed=0.00217x    frame=   56 fps=3.4 q=41.0 size=       0kB time=00:00:00.10 bitrate=   3.8kbits/s speed=0.00616x    frame=   58 fps=3.4 q=41.0 size=       0kB time=00:00:00.16 bitrate=   2.3kbits/s speed=0.00982x    frame=   60 fps=3.4 q=42.0 size=       0kB time=00:00:00.23 bitrate=   1.6kbits/s speed=0.0132x    frame=   62 fps=3.4 q=41.0 size=       0kB time=00:00:00.30 bitrate=   1.3kbits/s speed=0.0164x    frame=   64 fps=3.4 q=41.0 size=       0kB time=00:00:00.36 bitrate=   1.0kbits/s speed=0.0193x    frame=   66 fps=3.3 q=41.0 size=       0kB time=00:00:00.43 bitrate=   0.9kbits/s speed=0.0218x    frame=   67 fps=3.3 q=41.0 size=       0kB time=00:00:00.46 bitrate=   0.8kbits/s speed=0.0229x    av_interleaved_write_frame(): Immediate exit requested
Error writing trailer of ./mission_records/5c4334b7-cc5f-4e22-a0a8-f4eb74ad9a14/video.mp4: Immediate exit requested
frame=   67 fps=2.8 q=44.0 Lsize=     256kB time=00:00:01.40 bitrate=1498.2kbits/s speed=0.0577x    
video:519kB audio:0kB subtitle:0kB other streams:0kB global headers:0kB muxing overhead: unknown
[libx264 @ 0x7f8cb2804200] frame I:5     Avg QP:37.13  size: 26661
[libx264 @ 0x7f8cb2804200] frame P:33    Avg QP:42.48  size:  9183
[libx264 @ 0x7f8cb2804200] frame B:29    Avg QP:42.62  size:  8886
[libx264 @ 0x7f8cb2804200] consecutive B-frames: 26.9% 38.8% 22.4% 11.9%
[libx264 @ 0x7f8cb2804200] mb I  I16..4:  9.7% 57.3% 33.0%
[libx264 @ 0x7f8cb2804200] mb P  I16..4:  9.4% 32.4%  2.0%  P16..4: 34.4%  7.3%  2.4%  0.0%  0.0%    skip:12.1%
[libx264 @ 0x7f8cb2804200] mb B  I16..4:  3.6%  9.5%  0.6%  B16..8: 43.3% 12.8%  1.3%  direct: 2.5%  skip:26.5%  L0:59.1% L1:39.8% BI: 1.2%
[libx264 @ 0x7f8cb2804200] final ratefactor: 35.87
[libx264 @ 0x7f8cb2804200] 8x8 transform intra:69.7% inter:84.3%
[libx264 @ 0x7f8cb2804200] coded y,uvDC,uvAC intra: 30.4% 38.9% 3.9% inter: 14.0% 7.0% 0.0%
[libx264 @ 0x7f8cb2804200] i16 v,h,dc,p: 46% 36%  8% 10%
[libx264 @ 0x7f8cb2804200] i8 v,h,dc,ddl,ddr,vr,hd,vl,hu: 30% 23% 23%  3%  4%  3%  6%  2%  6%
[libx264 @ 0x7f8cb2804200] i4 v,h,dc,ddl,ddr,vr,hd,vl,hu: 31% 35% 11%  3%  4%  3%  7%  2%  5%
[libx264 @ 0x7f8cb2804200] i8c dc,h,v,p: 82% 10%  7%  1%
[libx264 @ 0x7f8cb2804200] Weighted P-Frames: Y:3.0% UV:0.0%
[libx264 @ 0x7f8cb2804200] ref P L0: 44.6%  6.0% 27.7% 21.5%  0.2%
[libx264 @ 0x7f8cb2804200] ref B L0: 60.0% 31.4%  8.6%
[libx264 @ 0x7f8cb2804200] ref B L1: 96.1%  3.9%
[libx264 @ 0x7f8cb2804200] kb/s:2486.08
Exiting normally, received signal 2.
